HIERARCHY
ROOT Hips
{
	OFFSET 0.000000 0.000000 0.000000
	CHANNELS 6 Xposition Yposition Zposition Zrotation Yrotation Xrotation 
	JOINT LeftUpLeg_virtual
	{
		OFFSET 0.000000 0.000000 0.000000
		CHANNELS 3 Zrotation Yrotation Xrotation
		JOINT LeftUpLeg
		{
			OFFSET 8.479694 -4.795517 -0.379053
			CHANNELS 3 Zrotation Yrotation Xrotation
			JOINT LeftLeg
			{
				OFFSET 0.485052 -32.551468 0.112863
				CHANNELS 3 Zrotation Yrotation Xrotation
				JOINT LeftFoot
				{
					OFFSET 0.438033 -32.635670 -3.012641
					CHANNELS 3 Zrotation Yrotation Xrotation
					JOINT LeftToeBase
					{
						OFFSET 0.970169 -13.225353 11.864223
						CHANNELS 3 Zrotation Yrotation Xrotation
						End Site
						{
							OFFSET 0.000000 0.000000 0.000000
						}
					}
				}
			}
		}
	}
	JOINT RightUpLeg_virtual
	{
		OFFSET 0.000000 0.000000 0.000000
		CHANNELS 3 Zrotation Yrotation Xrotation
		JOINT RightUpLeg
		{
			OFFSET -8.479694 -4.795517 -0.379053
			CHANNELS 3 Zrotation Yrotation Xrotation
			JOINT RightLeg
			{
				OFFSET -0.484100 -32.551483 0.112903
				CHANNELS 3 Zrotation Yrotation Xrotation
				JOINT RightFoot
				{
					OFFSET -0.438985 -32.635651 -3.012681
					CHANNELS 3 Zrotation Yrotation Xrotation
					JOINT RightToeBase
					{
						OFFSET -0.970169 -13.225354 11.864223
						CHANNELS 3 Zrotation Yrotation Xrotation
						End Site
						{
							OFFSET 0.000000 0.000000 0.000000
						}
					}
				}
			}
		}
	}
	JOINT Spine_virtual
	{
		OFFSET 0.000000 0.000000 0.000000
		CHANNELS 3 Zrotation Yrotation Xrotation
		JOINT Spine
		{
			OFFSET 0.000000 7.722015 1.166203
			CHANNELS 3 Zrotation Yrotation Xrotation
			JOINT Spine1
			{
				OFFSET 0.000000 12.024086 0.248766
				CHANNELS 3 Zrotation Yrotation Xrotation
				JOINT Spine2
				{
					OFFSET -0.000000 11.503036 -0.491240
					CHANNELS 3 Zrotation Yrotation Xrotation
					JOINT Neck_virtual
					{
						OFFSET 0.000000 0.000000 0.000000
						CHANNELS 3 Zrotation Yrotation Xrotation
						JOINT Neck
						{
							OFFSET 0.000000 18.430687 -3.123054
							CHANNELS 3 Zrotation Yrotation Xrotation
							JOINT Head
							{
								OFFSET -0.000000 9.051071 1.034021
								CHANNELS 3 Zrotation Yrotation Xrotation
								End Site
								{
									OFFSET 0.000000 0.000000 0.000000
								}
							}
						}
					}
					JOINT LeftShoulder_virtual
					{
						OFFSET 0.000000 0.000000 0.000000
						CHANNELS 3 Zrotation Yrotation Xrotation
						JOINT LeftShoulder
						{
							OFFSET 6.197824 13.665230 -4.064723
							CHANNELS 3 Zrotation Yrotation Xrotation
							JOINT LeftArm
							{
								OFFSET 7.778132 -0.187073 -1.709282
								CHANNELS 3 Zrotation Yrotation Xrotation
								JOINT LeftForeArm
								{
									OFFSET 21.954697 0.000000 -2.041093
									CHANNELS 3 Zrotation Yrotation Xrotation
									JOINT LeftHand
									{
										OFFSET 22.992908 0.000000 -0.870901
										CHANNELS 3 Zrotation Yrotation Xrotation
										End Site
										{
											OFFSET 0.000000 0.000000 0.000000
										}
									}
								}
							}
						}
					}
					JOINT RightShoulder_virtual
					{
						OFFSET 0.000000 0.000000 0.000000
						CHANNELS 3 Zrotation Yrotation Xrotation
						JOINT RightShoulder
						{
							OFFSET -6.197824 13.665230 -4.064723
							CHANNELS 3 Zrotation Yrotation Xrotation
							JOINT RightArm
							{
								OFFSET -7.778132 -0.187073 -1.709282
								CHANNELS 3 Zrotation Yrotation Xrotation
								JOINT RightForeArm
								{
									OFFSET -21.954697 0.000000 -2.041093
									CHANNELS 3 Zrotation Yrotation Xrotation
									JOINT RightHand
									{
										OFFSET -22.992908 0.000000 -0.870901
										CHANNELS 3 Zrotation Yrotation Xrotation
										End Site
										{
											OFFSET 0.000000 0.000000 0.000000
										}
									}
								}
							}
						}
					}
				}
			}
		}
	}
}
MOTION
Frames: 9
Frame Time: 0.033333
-4.690609 80.814148 33.184952 -179.905216 3.454502 -179.958901 -4.704076 -1.098507 10.777911 -4.629372 5.249658 -23.678302 9.183130 5.692712 32.030336 0.814420 -10.451044 -12.983270 0.000000 0.000000 0.000000 -1.265671 -1.009498 10.397390 -1.754278 0.352780 -20.930717 -1.317906 3.642970 29.523937 8.022613 3.909768 -13.072437 0.000000 0.000000 0.000000 2.420871 1.712923 -1.323794 -5.261374 1.565184 -0.997880 0.352089 -2.607615 4.394065 0.014065 -0.009550 0.036787 0.150702 -1.727250 5.601522 -0.534590 1.271607 -4.179034 0.000000 0.000000 0.000000 1.635734 -0.851016 2.733903 -1.818867 4.481478 -6.058045 -3.692481 -9.662639 -49.213736 2.231730 -33.048021 -3.319105 0.000000 0.000000 0.000000 -2.146320 0.356185 2.149109 22.740041 -8.827177 -8.899810 -1.039550 2.044718 -65.143592 1.127672 20.963420 5.169793 0.000000 0.000000 0.000000 
-4.698032 80.812172 33.222004 -179.879042 3.273523 -179.908986 -4.734537 -1.180771 10.807356 -4.758507 5.662959 -23.670806 9.077767 5.717965 32.196962 0.613006 -10.796885 -13.027345 0.000000 0.000000 0.000000 -1.232485 -1.042386 10.413435 -1.747150 0.277137 -20.939958 -1.429979 3.588816 29.631294 7.874353 3.677855 -13.109682 0.000000 0.000000 0.000000 2.389626 1.709019 -1.368527 -5.187587 1.523136 -0.994023 0.346801 -2.601844 4.431342 0.019938 -0.038176 0.049098 0.103266 -1.698793 5.643826 -0.455785 1.131633 -4.176825 0.000000 0.000000 0.000000 1.575544 -0.810965 2.758363 -1.893148 4.465874 -6.082919 -3.549225 -9.606121 -49.198358 2.182611 -32.881808 -3.236548 0.000000 0.000000 0.000000 -2.183346 0.312885 2.189986 22.864181 -8.777425 -8.921761 -1.207077 2.066136 -65.355573 1.117091 20.865634 5.257681 0.000000 0.000000 0.000000 
-4.700563 80.815109 33.251568 -179.895817 3.272292 -179.918097 -4.759025 -1.137235 10.806386 -4.760126 5.604859 -23.682125 9.091305 5.721631 32.216134 0.615231 -10.838478 -12.993619 0.000000 0.000000 0.000000 -1.216775 -1.015430 10.427029 -1.765644 0.320242 -20.966039 -1.468512 3.617702 29.642386 7.882537 3.622724 -13.117521 0.000000 0.000000 0.000000 2.321586 1.780715 -1.326851 -5.110973 1.529903 -0.982940 0.323003 -2.528661 4.439564 -0.009520 0.011124 0.066610 0.128884 -1.623380 5.719682 -0.339930 0.928950 -4.055094 0.000000 0.000000 0.000000 1.565976 -0.855264 2.808456 -1.853950 4.476979 -6.128716 -3.532413 -9.726818 -48.886860 2.244830 -32.801348 -3.200604 0.000000 0.000000 0.000000 -2.218814 0.326992 2.152405 22.945119 -8.850674 -8.759789 -1.273160 1.853377 -65.528760 1.114978 20.928062 5.256695 0.000000 0.000000 0.000000 
-4.700848 80.820030 33.265400 -179.930679 3.176961 -179.885121 -4.807295 -1.276448 10.792741 -4.767123 5.541722 -23.719584 9.118532 5.695804 32.232749 0.656960 -10.852223 -12.977688 0.000000 0.000000 0.000000 -1.232879 -1.064039 10.439802 -1.781259 0.285597 -21.000989 -1.478748 3.644767 29.588308 7.915710 3.575382 -13.113044 0.000000 0.000000 0.000000 2.263432 1.684500 -1.293229 -5.039153 1.390962 -0.964446 0.287465 -2.426667 4.427607 -0.057620 0.063213 0.067168 0.157188 -1.503400 5.746305 -0.233458 0.722809 -4.014371 0.000000 0.000000 0.000000 1.598242 -0.790460 2.804643 -1.969624 4.488472 -5.891257 -3.413435 -9.798475 -48.690868 2.315492 -32.716845 -3.101203 0.000000 0.000000 0.000000 -2.191284 0.384299 2.182416 23.067244 -8.856424 -8.667843 -1.284646 1.666926 -65.649121 1.188742 20.942625 5.354704 0.000000 0.000000 0.000000 
-4.698988 80.822433 33.281113 -179.900653 3.264764 -179.909327 -4.798983 -1.207361 10.774570 -4.739217 5.475364 -23.701228 9.159507 5.717495 32.251306 0.716072 -10.771323 -12.964302 0.000000 0.000000 0.000000 -1.220240 -1.068406 10.439307 -1.758174 0.264075 -20.977526 -1.462522 3.656254 29.541067 8.007689 3.603786 -13.091553 0.000000 0.000000 0.000000 2.210312 1.716944 -1.180338 -4.964362 1.481095 -0.911912 0.307913 -2.493743 4.407346 0.000256 -0.034998 0.034050 0.049181 -1.545675 5.790224 -0.186102 0.561777 -3.892283 0.000000 0.000000 0.000000 1.549462 -0.724950 2.787073 -2.039397 4.591027 -5.795940 -3.287296 -9.965806 -48.642367 2.491072 -32.741301 -3.049835 0.000000 0.000000 0.000000 -2.256984 0.456849 2.266399 23.139632 -8.843109 -8.328635 -1.117429 1.665368 -65.862695 1.229439 20.994333 5.335358 0.000000 0.000000 0.000000 
-4.688780 80.821548 33.292717 -179.862486 3.342678 -179.896978 -4.796453 -1.274279 10.731629 -4.707054 5.382323 -23.675406 9.201611 5.711086 32.256340 0.791000 -10.671244 -13.000824 0.000000 0.000000 0.000000 -1.228851 -1.112792 10.404365 -1.729704 0.211006 -20.954411 -1.428210 3.645184 29.512633 8.111888 3.639182 -13.038064 0.000000 0.000000 0.000000 2.215534 1.637113 -1.083218 -4.887521 1.543139 -0.869592 0.313840 -2.422141 4.352996 -0.041722 -0.006242 0.020966 0.090876 -1.477165 5.805906 -0.044384 0.323245 -3.782230 0.000000 0.000000 0.000000 1.550681 -0.706635 2.821233 -2.039384 4.564743 -5.936698 -3.449520 -10.175937 -48.557208 2.539095 -32.776985 -2.733133 0.000000 0.000000 0.000000 -2.244102 0.478595 2.255743 23.245915 -8.856129 -8.189039 -1.001246 1.412433 -66.194724 1.411067 21.066960 5.396218 0.000000 0.000000 0.000000 
-4.678533 80.812759 33.301037 -179.906281 3.334428 -179.883905 -4.855710 -1.436291 10.690125 -4.712322 5.271255 -23.617319 9.236658 5.703918 32.260732 0.863805 -10.572447 -13.056565 0.000000 0.000000 0.000000 -1.284983 -1.198194 10.345955 -1.701293 0.069509 -20.939586 -1.380318 3.674545 29.509822 8.242729 3.718352 -13.045456 0.000000 0.000000 0.000000 2.177997 1.516773 -1.006610 -4.878557 1.591748 -0.835280 0.342119 -2.396691 4.338459 -0.076325 -0.003331 0.030360 0.181876 -1.343889 5.805253 0.064537 0.091073 -3.657805 0.000000 0.000000 0.000000 1.561621 -0.663844 2.799491 -2.014647 4.525380 -5.891891 -3.982164 -10.264008 -48.388707 2.668262 -32.683070 -2.395251 0.000000 0.000000 0.000000 -2.203122 0.545534 2.262757 23.054827 -8.789742 -7.919761 -0.715908 1.221052 -66.734814 1.585679 21.252287 5.322088 0.000000 0.000000 0.000000 
-4.679028 80.814301 33.304790 -179.959625 3.264044 -179.909191 -4.921100 -1.481602 10.656341 -4.713875 5.154394 -23.535874 9.269362 5.665186 32.255145 0.914357 -10.494750 -13.067346 0.000000 0.000000 0.000000 -1.343146 -1.320813 10.301880 -1.714969 -0.038508 -20.875384 -1.359726 3.787514 29.465122 8.310472 3.733467 -13.031284 0.000000 0.000000 0.000000 2.123591 1.413024 -0.915877 -4.925494 1.652140 -0.798240 0.376816 -2.392432 4.332064 -0.047205 -0.022156 0.031896 0.213339 -1.323229 5.825175 0.085004 -0.031786 -3.550979 0.000000 0.000000 0.000000 1.576544 -0.595965 2.811295 -1.976532 4.451447 -5.858733 -4.580117 -10.229159 -48.443848 2.848320 -32.551203 -2.039694 0.000000 0.000000 0.000000 -2.146503 0.539817 2.302790 22.806866 -8.594047 -7.605947 -0.375027 1.052477 -67.483048 1.766018 21.525394 5.188771 0.000000 0.000000 0.000000 
-4.682197 80.808228 33.318932 -179.945350 3.320882 -179.885722 -4.918548 -1.454354 10.621444 -4.686095 5.114399 -23.551203 9.291149 5.722102 32.276558 0.896948 -10.475368 -13.091837 0.000000 0.000000 0.000000 -1.338471 -1.289496 10.233886 -1.703248 -0.055397 -20.834348 -1.342144 3.743074 29.476402 8.365629 3.752484 -13.046329 0.000000 0.000000 0.000000 2.068558 1.393910 -0.836676 -4.959626 1.771670 -0.773275 0.453305 -2.376562 4.334593 0.016488 -0.004443 0.044103 0.221130 -1.382781 5.952289 0.080755 -0.119642 -3.400473 0.000000 0.000000 0.000000 1.613675 -0.620053 2.872913 -1.605561 4.267010 -6.050129 -5.769346 -9.860612 -48.267291 3.006643 -32.457769 -1.498828 0.000000 0.000000 0.000000 -2.127436 0.528938 2.388305 22.455895 -8.309668 -7.209828 0.213418 0.883481 -68.073060 2.048840 21.928915 4.982473 0.000000 0.000000 0.000000 
